<svg width="24" height="24" viewBox="0 0 24 24"  xmlns="http://www.w3.org/2000/svg">
<path fill-rule="evenodd" clip-rule="evenodd" d="M12 3C7.02944 3 3 7.02944 3 12C3 14.0272 3.6702 15.8978 4.80112 17.4024C6.79419 15.9128 9.304 15 12 15C14.7317 15 17.2007 15.8515 19.2104 17.387C20.3343 15.8851 21 14.0203 21 12C21 7.02944 16.9706 3 12 3ZM12 21C9.78277 21 7.7528 20.1982 6.18422 18.8688C7.81751 17.7052 9.83992 17 12 17C14.2241 17 16.2066 17.6652 17.8329 18.8542C16.262 20.1924 14.2253 21 12 21ZM1 12C1 5.92487 5.92487 1 12 1C18.0751 1 23 5.92487 23 12C23 18.0751 18.0751 23 12 23C5.92487 23 1 18.0751 1 12ZM10 9C10 7.85228 10.8523 7 12 7C13.1477 7 14 7.85228 14 9V10C14 11.1477 13.1477 12 12 12C10.8523 12 10 11.1477 10 10V9ZM12 5C9.74771 5 8 6.74771 8 9V10C8 12.2523 9.74771 14 12 14C14.2523 14 16 12.2523 16 10V9C16 6.74771 14.2523 5 12 5Z" />
</svg>
